<?xml version="1.0" encoding="UTF-8"?>
<svg width="700pt" height="700pt" version="1.1" viewBox="0 0 700 700" xmlns="http://www.w3.org/2000/svg" xmlns:xlink="http://www.w3.org/1999/xlink">
 <defs>
  <symbol id="u" overflow="visible">
   <path d="m0.125-0.015625c-0.011719 0.011719-0.023438 0.015625-0.03125 0.015625h-0.015625c-0.023438 0-0.039062-0.0039062-0.046875-0.015625-0.011719-0.0078125-0.015625-0.023438-0.015625-0.046875 0-0.019531 0.0039062-0.035156 0.015625-0.046875 0.0078125-0.019531 0.023438-0.03125 0.046875-0.03125h0.015625c0.007812 0 0.019531 0.007813 0.03125 0.015625v0.03125c-0.011719-0.007812-0.023438-0.015625-0.03125-0.015625h-0.015625c-0.011719 0-0.023438 0.007813-0.03125 0.015625v0.03125 0.03125c0.0078125 0.011719 0.019531 0.015625 0.03125 0.015625h0.015625c0.007812-0.0078125 0.019531-0.015625 0.03125-0.015625z"/>
  </symbol>
  <symbol id="b" overflow="visible">
   <path d="m0.09375-0.078125h-0.015625c-0.011719 0-0.023438 0.0078125-0.03125 0.015625v0.015625 0.046875h-0.03125v-0.10938h0.03125v0.03125l0.015625-0.015625c0-0.007812 0.0039062-0.015625 0.015625-0.015625h0.015625z"/>
  </symbol>
  <symbol id="a" overflow="visible">
   <path d="m0.10938-0.046875h-0.0625v0.03125h0.015625 0.03125c0.007812-0.0078125 0.015625-0.015625 0.015625-0.015625v0.03125h-0.015625-0.03125c-0.023438 0-0.039062-0.0039062-0.046875-0.015625v-0.03125-0.046875c0.0078125-0.007812 0.023438-0.015625 0.046875-0.015625 0.019531 0 0.03125 0.007813 0.03125 0.015625 0.007812 0.011719 0.015625 0.027344 0.015625 0.046875zm-0.03125-0.015625v-0.015625h-0.015625-0.015625v0.015625z"/>
  </symbol>
  <symbol id="d" overflow="visible">
   <path d="m0.0625-0.046875c-0.011719 0-0.015625 0.0078125-0.015625 0.015625v0.015625h0.015625c0.0078125-0.0078125 0.015625-0.019531 0.015625-0.03125zm0.046875-0.015625v0.0625h-0.03125v-0.015625c0 0.011719-0.0078125 0.015625-0.015625 0.015625h-0.015625-0.03125v-0.03125-0.015625c0.0078125-0.0078125 0.023438-0.015625 0.046875-0.015625h0.015625c0-0.0078125-0.0078125-0.015625-0.015625-0.015625h-0.015625-0.015625-0.015625v-0.015625c0.0078125-0.007812 0.015625-0.015625 0.015625-0.015625h0.03125c0.019531 0 0.03125 0.007813 0.03125 0.015625 0.007812 0.011719 0.015625 0.023438 0.015625 0.03125z"/>
  </symbol>
  <symbol id="c" overflow="visible">
   <path d="m0.046875-0.125v0.015625h0.03125v0.03125h-0.03125v0.046875 0.015625h0.015625 0.015625v0.015625h-0.015625-0.046875v-0.03125-0.046875h-0.015625v-0.03125h0.015625v-0.015625z"/>
  </symbol>
  <symbol id="k" overflow="visible">
   <path d="m0.078125-0.09375v-0.046875h0.03125v0.14062h-0.03125v-0.015625c0 0.011719-0.0078125 0.015625-0.015625 0.015625h-0.015625c-0.011719 0-0.023438-0.0039062-0.03125-0.015625v-0.03125-0.046875c0.0078125-0.007812 0.019531-0.015625 0.03125-0.015625 0.0078125 0 0.015625 0.007813 0.015625 0.015625h0.015625zm-0.015625 0.078125h0.015625v-0.03125-0.015625c0-0.0078125-0.0078125-0.015625-0.015625-0.015625-0.011719 0-0.015625 0.0078125-0.015625 0.015625v0.015625 0.03125h0.015625z"/>
  </symbol>
  <symbol id="j" overflow="visible">
   <path d="m0.0625-0.015625h0.015625c0.0078125-0.0078125 0.015625-0.019531 0.015625-0.03125 0-0.0078125-0.0078125-0.015625-0.015625-0.015625 0-0.0078125-0.0078125-0.015625-0.015625-0.015625l-0.015625 0.015625v0.015625 0.03125h0.015625zm-0.015625-0.078125h0.015625c0.0078125-0.007812 0.015625-0.015625 0.015625-0.015625 0.019531 0 0.03125 0.007813 0.03125 0.015625 0.007813 0.011719 0.015625 0.027344 0.015625 0.046875 0 0.011719-0.007812 0.023438-0.015625 0.03125 0 0.011719-0.011719 0.015625-0.03125 0.015625h-0.015625s-0.0078125-0.0039062-0.015625-0.015625v0.015625h-0.03125v-0.14062h0.03125z"/>
  </symbol>
  <symbol id="i" overflow="visible">
   <path d="m0-0.10938h0.03125l0.03125 0.078125 0.015625-0.078125h0.046875l-0.046875 0.125c-0.011719 0.0078125-0.023438 0.015625-0.03125 0.015625 0 0.0078125-0.0078125 0.015625-0.015625 0.015625h-0.015625v-0.03125h0.015625c0.0078125 0 0.015625-0.0078125 0.015625-0.015625z"/>
  </symbol>
  <symbol id="f" overflow="visible">
   <path d="m0.015625-0.14062h0.046875l0.046875 0.09375v-0.09375h0.03125v0.14062h-0.046875l-0.046875-0.09375v0.09375h-0.03125z"/>
  </symbol>
  <symbol id="h" overflow="visible">
   <path d="m0.015625-0.046875v-0.0625h0.03125v0.015625 0.03125 0.03125 0.015625h0.015625 0.015625v-0.03125-0.0625h0.03125v0.10938h-0.03125v-0.015625c0 0.011719-0.0078125 0.015625-0.015625 0.015625h-0.015625-0.03125v-0.046875z"/>
  </symbol>
  <symbol id="t" overflow="visible">
   <path d="m0.015625-0.14062h0.09375v0.03125h-0.0625v0.03125h0.0625v0.015625h-0.0625v0.0625h-0.03125z"/>
  </symbol>
  <symbol id="s" overflow="visible">
   <path d="m0.015625-0.10938h0.03125v0.10938h-0.03125zm0-0.03125h0.03125v0.03125h-0.03125z"/>
  </symbol>
  <symbol id="r" overflow="visible">
   <path d="m0.015625-0.10938h0.078125v0.03125l-0.046875 0.0625h0.046875v0.015625h-0.078125v-0.015625l0.046875-0.0625h-0.046875z"/>
  </symbol>
  <symbol id="g" overflow="visible">
   <path d="m0.125-0.0625v0.0625h-0.046875v-0.046875-0.015625-0.015625h-0.015625l-0.015625 0.015625v0.015625 0.046875h-0.03125v-0.14062h0.03125v0.046875h0.015625c0.0078125-0.007812 0.015625-0.015625 0.015625-0.015625 0.0078125 0 0.019531 0.007813 0.03125 0.015625 0.007813 0.011719 0.015625 0.023438 0.015625 0.03125z"/>
  </symbol>
  <symbol id="q" overflow="visible">
   <path d="m0.078125-0.14062v0.015625h-0.015625s-0.0078125 0.007812-0.015625 0.015625h0.03125v0.03125h-0.03125v0.078125h-0.03125v-0.078125h-0.015625v-0.03125h0.015625v-0.015625c0.0078125-0.007812 0.023438-0.015625 0.046875-0.015625z"/>
  </symbol>
  <symbol id="e" overflow="visible">
   <path d="m0.0625-0.078125c-0.011719 0-0.015625 0.0078125-0.015625 0.015625v0.015625 0.03125h0.015625 0.015625c0.0078125-0.0078125 0.015625-0.019531 0.015625-0.03125 0-0.0078125-0.0078125-0.015625-0.015625-0.015625 0-0.0078125-0.0078125-0.015625-0.015625-0.015625zm0-0.03125c0.019531 0 0.035156 0.007813 0.046875 0.015625 0.007813 0.011719 0.015625 0.027344 0.015625 0.046875 0 0.011719-0.007812 0.023438-0.015625 0.03125-0.011719 0.011719-0.027344 0.015625-0.046875 0.015625-0.023438 0-0.039062-0.0039062-0.046875-0.015625v-0.03125-0.046875c0.0078125-0.007812 0.023438-0.015625 0.046875-0.015625z"/>
  </symbol>
  <symbol id="p" overflow="visible">
   <path d="m0.10938-0.078125c0-0.0078125 0.003906-0.015625 0.015625-0.015625l0.015625-0.015625c0.007813 0 0.019531 0.007813 0.03125 0.015625 0.007813 0.011719 0.015625 0.023438 0.015625 0.03125v0.0625h-0.046875v-0.046875-0.015625-0.015625c-0.011719 0-0.023437 0.0078125-0.03125 0.015625v0.015625 0.046875h-0.03125v-0.046875-0.015625c0-0.0078125-0.0078125-0.015625-0.015625-0.015625l-0.015625 0.015625v0.015625 0.046875h-0.03125v-0.10938h0.03125v0.015625h0.015625c0-0.007812 0.0039062-0.015625 0.015625-0.015625 0.0078125 0 0.015625 0.007813 0.015625 0.015625 0.007812 0 0.015625 0.0078125 0.015625 0.015625z"/>
  </symbol>
  <symbol id="o" overflow="visible">
   <path d="m0.125-0.0625v0.0625h-0.046875v-0.046875-0.015625-0.015625h-0.015625l-0.015625 0.015625v0.015625 0.046875h-0.03125v-0.10938h0.03125v0.015625h0.015625c0.0078125-0.007812 0.015625-0.015625 0.015625-0.015625 0.0078125 0 0.019531 0.007813 0.03125 0.015625 0.007813 0.011719 0.015625 0.023438 0.015625 0.03125z"/>
  </symbol>
  <symbol id="n" overflow="visible">
   <path d="m0.015625-0.14062h0.0625c0.019531 0 0.03125 0.007813 0.03125 0.015625 0.007813 0.011719 0.015625 0.023438 0.015625 0.03125 0 0.023438-0.007812 0.039062-0.015625 0.046875h-0.03125-0.03125v0.046875h-0.03125zm0.03125 0.03125v0.03125h0.03125c0.0078125 0 0.015625-0.0039062 0.015625-0.015625 0-0.007812-0.0078125-0.015625-0.015625-0.015625z"/>
  </symbol>
  <symbol id="m" overflow="visible">
   <path d="m0.015625-0.10938h0.03125v0.10938c0 0.0078125-0.0078125 0.019531-0.015625 0.03125 0 0.0078125-0.0078125 0.015625-0.015625 0.015625h-0.015625v-0.03125h0.015625v-0.015625zm0-0.03125h0.03125v0.03125h-0.03125z"/>
  </symbol>
  <symbol id="l" overflow="visible">
   <path d="m0.09375-0.09375v0.015625h-0.015625-0.015625l-0.015625 0.015625v0.015625 0.03125h0.015625 0.015625l0.015625-0.015625v0.03125h-0.015625-0.015625c-0.023438 0-0.039062-0.0039062-0.046875-0.015625v-0.03125-0.046875c0.0078125-0.007812 0.023438-0.015625 0.046875-0.015625h0.015625c0.0078125 0 0.015625 0.007813 0.015625 0.015625z"/>
  </symbol>
 </defs>
 <g>
  <path d="m214.82 280.05 108.62-108.67h81.918l-79.613 79.664h159.33v58.016h-159.33l79.613 79.664h-81.918z"/>
  <use x="70" y="560.558594" xlink:href="#u"/>
  <use x="70.136719" y="560.558594" xlink:href="#b"/>
  <use x="70.230469" y="560.558594" xlink:href="#a"/>
  <use x="70.355469" y="560.558594" xlink:href="#d"/>
  <use x="70.480469" y="560.558594" xlink:href="#c"/>
  <use x="70.570312" y="560.558594" xlink:href="#a"/>
  <use x="70.699219" y="560.558594" xlink:href="#k"/>
  <use x="70.894531" y="560.558594" xlink:href="#j"/>
  <use x="71.03125" y="560.558594" xlink:href="#i"/>
  <use x="71.214844" y="560.558594" xlink:href="#f"/>
  <use x="71.371094" y="560.558594" xlink:href="#h"/>
  <use x="71.503906" y="560.558594" xlink:href="#b"/>
  <use x="71.664062" y="560.558594" xlink:href="#t"/>
  <use x="71.789062" y="560.558594" xlink:href="#d"/>
  <use x="71.914062" y="560.558594" xlink:href="#s"/>
  <use x="71.980469" y="560.558594" xlink:href="#r"/>
  <use x="72.089844" y="560.558594" xlink:href="#d"/>
  <use x="72.214844" y="560.558594" xlink:href="#g"/>
  <use x="70" y="560.746094" xlink:href="#q"/>
  <use x="70.082031" y="560.746094" xlink:href="#b"/>
  <use x="70.171875" y="560.746094" xlink:href="#e"/>
  <use x="70.300781" y="560.746094" xlink:href="#p"/>
  <use x="70.5625" y="560.746094" xlink:href="#c"/>
  <use x="70.648438" y="560.746094" xlink:href="#g"/>
  <use x="70.78125" y="560.746094" xlink:href="#a"/>
  <use x="70.976562" y="560.746094" xlink:href="#f"/>
  <use x="71.132812" y="560.746094" xlink:href="#e"/>
  <use x="71.257812" y="560.746094" xlink:href="#h"/>
  <use x="71.390625" y="560.746094" xlink:href="#o"/>
  <use x="71.589844" y="560.746094" xlink:href="#n"/>
  <use x="71.726562" y="560.746094" xlink:href="#b"/>
  <use x="71.820312" y="560.746094" xlink:href="#e"/>
  <use x="71.945312" y="560.746094" xlink:href="#m"/>
  <use x="72.011719" y="560.746094" xlink:href="#a"/>
  <use x="72.136719" y="560.746094" xlink:href="#l"/>
  <use x="72.25" y="560.746094" xlink:href="#c"/>
 </g>
</svg>
